<svg width="92" height="81" viewBox="0 0 92 81" fill="none" xmlns="http://www.w3.org/2000/svg">
<path d="M56.0916 30.007L56 11.0059L52 11.0098L52.0916 30.011L56.0916 30.007Z" fill="#E7ECED"/>
<path d="M58.0916 30.0051L58 11.0039L55 11.0069L55.0916 30.008L58.0916 30.0051Z" fill="#E7ECED"/>
<path d="M62.0916 30.0012L62 11L58 11.0039L58.0916 30.0051L62.0916 30.0012Z" fill="#E7ECED"/>
<path d="M69.7231 70.0439H22.1891C22.0551 70.0439 21.9411 69.9459 21.9211 69.8139L17.0031 37.3559C16.9781 37.1919 17.1051 37.0439 17.2711 37.0439H74.6411C74.8071 37.0439 74.9341 37.1919 74.9091 37.3559L69.9911 69.8139C69.9711 69.9459 69.8571 70.0439 69.7231 70.0439Z" fill="#F7B563"/>
<path d="M61.9561 53H42.9561V65H61.9561V53Z" fill="#EDEADA"/>
<path d="M46.9561 58H50.9561C51.5091 58 51.9561 57.553 51.9561 57C51.9561 56.447 51.5091 56 50.9561 56H46.9561C46.4031 56 45.9561 56.447 45.9561 57C45.9561 57.553 46.4031 58 46.9561 58Z" fill="#CEC9AE"/>
<path d="M54.9561 58H55.9561C56.5091 58 56.9561 57.553 56.9561 57C56.9561 56.447 56.5091 56 55.9561 56H54.9561C54.4031 56 53.9561 56.447 53.9561 57C53.9561 57.553 54.4031 58 54.9561 58Z" fill="#CEC9AE"/>
<path d="M57.9561 60H46.9561C46.4031 60 45.9561 60.447 45.9561 61C45.9561 61.553 46.4031 62 46.9561 62H57.9561C58.5091 62 58.9561 61.553 58.9561 61C58.9561 60.447 58.5091 60 57.9561 60Z" fill="#CEC9AE"/>
<path d="M73 37.001V21.769C73 21.345 72.6147 21.001 72.1398 21.001H37.6472C37.3448 21.001 37.0648 20.86 36.9102 20.628L34.0509 16.373C33.8952 16.142 33.6152 16 33.3139 16H17.8602C17.3853 16.001 17 16.345 17 16.769V37.001H73Z" fill="#B5885B"/>
</svg>
