<svg width="178" height="202" viewBox="0 0 178 202" fill="none" xmlns="http://www.w3.org/2000/svg">
<ellipse cx="89.5" cy="91.5" rx="44.5" ry="47.5" fill="#F3F3F3"/>
<path d="M91.8438 90.1562H86.625L86.2188 57.5H92.2812L91.8438 90.1562ZM86 100.094C86 99.1562 86.2812 98.375 86.8438 97.75C87.4271 97.1042 88.2812 96.7812 89.4062 96.7812C90.5312 96.7812 91.3854 97.1042 91.9688 97.75C92.5521 98.375 92.8438 99.1562 92.8438 100.094C92.8438 101.031 92.5521 101.812 91.9688 102.438C91.3854 103.042 90.5312 103.344 89.4062 103.344C88.2812 103.344 87.4271 103.042 86.8438 102.438C86.2812 101.812 86 101.031 86 100.094Z" fill="#F06491"/>
<path d="M71.252 112.602C71.9346 112.602 72.4648 112.777 72.8428 113.129C73.2236 113.48 73.4141 113.943 73.4141 114.518C73.4141 115.098 73.2236 115.562 72.8428 115.911C72.4648 116.259 71.9346 116.434 71.252 116.434H69.894V118.323L70.6104 118.446V119H68.312V118.446L69.0283 118.323V113.283L68.312 113.16V112.602H69.0283H71.252ZM69.894 115.757H71.252C71.6855 115.757 72.0093 115.641 72.2231 115.41C72.4399 115.175 72.5483 114.881 72.5483 114.526C72.5483 114.172 72.4399 113.876 72.2231 113.639C72.0093 113.401 71.6855 113.283 71.252 113.283H69.894V115.757ZM76.2222 119.092C75.5601 119.092 75.0327 118.873 74.6401 118.433C74.2505 117.991 74.0557 117.418 74.0557 116.715V116.521C74.0557 115.845 74.2563 115.282 74.6577 114.834C75.062 114.383 75.5396 114.157 76.0903 114.157C76.729 114.157 77.2124 114.351 77.5405 114.737C77.8716 115.124 78.0371 115.64 78.0371 116.284V116.825H74.9521L74.939 116.847C74.9478 117.304 75.0635 117.68 75.2861 117.976C75.5088 118.269 75.8208 118.416 76.2222 118.416C76.5151 118.416 76.7715 118.375 76.9912 118.292C77.2139 118.208 77.4058 118.092 77.5669 117.945L77.9053 118.508C77.7354 118.672 77.5098 118.811 77.2285 118.925C76.9502 119.037 76.6147 119.092 76.2222 119.092ZM76.0903 114.838C75.8003 114.838 75.5527 114.961 75.3477 115.208C75.1426 115.451 75.0166 115.757 74.9697 116.126L74.9785 116.148H77.1714V116.034C77.1714 115.694 77.0806 115.41 76.8989 115.181C76.7173 114.953 76.4478 114.838 76.0903 114.838ZM78.894 114.803V114.245H80.3838L80.4673 114.935C80.6021 114.692 80.7676 114.501 80.9639 114.364C81.1631 114.226 81.3901 114.157 81.645 114.157C81.7124 114.157 81.7812 114.163 81.8516 114.175C81.9248 114.184 81.9805 114.194 82.0186 114.206L81.9043 115.01L81.4121 114.983C81.1836 114.983 80.9917 115.038 80.8364 115.146C80.6812 115.251 80.561 115.401 80.4761 115.594V118.323L81.1924 118.446V119H78.894V118.446L79.6104 118.323V114.926L78.894 114.803ZM82.4141 118.446L83.1304 118.323V112.826L82.4141 112.703V112.145H83.9961V114.878C84.1602 114.649 84.3608 114.472 84.5981 114.346C84.8354 114.22 85.0991 114.157 85.3892 114.157C85.8989 114.157 86.2944 114.31 86.5757 114.614C86.8569 114.919 86.9976 115.388 86.9976 116.021V118.323L87.7139 118.446V119H85.4155V118.446L86.1318 118.323V116.012C86.1318 115.619 86.0469 115.329 85.877 115.142C85.71 114.954 85.4595 114.86 85.1255 114.86C84.8882 114.86 84.6714 114.917 84.4751 115.032C84.2817 115.143 84.1221 115.295 83.9961 115.489V118.323L84.7124 118.446V119H82.4141V118.446ZM91.4448 119C91.4185 118.871 91.3979 118.755 91.3833 118.653C91.3687 118.55 91.3584 118.448 91.3525 118.345C91.1855 118.559 90.9761 118.738 90.7241 118.881C90.4751 119.022 90.2085 119.092 89.9243 119.092C89.4292 119.092 89.0527 118.972 88.7949 118.732C88.5371 118.489 88.4082 118.147 88.4082 117.708C88.4082 117.257 88.5898 116.91 88.9531 116.667C89.3193 116.42 89.8203 116.297 90.4561 116.297H91.3481V115.744C91.3481 115.465 91.2603 115.246 91.0845 115.084C90.9087 114.92 90.6641 114.838 90.3506 114.838C90.1338 114.838 89.9419 114.866 89.7749 114.922C89.6108 114.978 89.4775 115.054 89.375 115.15L89.2827 115.651H88.6147V114.729C88.8315 114.556 89.0938 114.418 89.4014 114.315C89.709 114.21 90.043 114.157 90.4033 114.157C90.9424 114.157 91.3789 114.295 91.7129 114.57C92.0469 114.846 92.2139 115.24 92.2139 115.752V118.042C92.2139 118.104 92.2139 118.164 92.2139 118.222C92.2168 118.281 92.2212 118.339 92.2271 118.398L92.5786 118.446V119H91.4448ZM90.0518 118.367C90.3389 118.367 90.6011 118.298 90.8384 118.161C91.0757 118.023 91.2456 117.857 91.3481 117.664V116.882H90.4253C90.0708 116.882 89.7896 116.964 89.5815 117.128C89.3765 117.292 89.2739 117.491 89.2739 117.726C89.2739 117.934 89.3384 118.093 89.4673 118.205C89.5962 118.313 89.791 118.367 90.0518 118.367ZM94.811 113.098V114.245H95.7119V114.887H94.811V117.774C94.811 117.997 94.8564 118.153 94.9473 118.244C95.041 118.335 95.1641 118.38 95.3164 118.38C95.3926 118.38 95.4775 118.375 95.5713 118.363C95.668 118.348 95.7485 118.333 95.813 118.319L95.9316 118.912C95.8496 118.965 95.7295 119.007 95.5713 119.04C95.4131 119.075 95.2549 119.092 95.0967 119.092C94.7451 119.092 94.4653 118.987 94.2573 118.776C94.0493 118.562 93.9453 118.228 93.9453 117.774V114.887H93.1938V114.245H93.9453V113.098H94.811ZM96.5952 118.446L97.3115 118.323V114.926L96.5952 114.803V114.245H98.1772V118.323L98.8936 118.446V119H96.5952V118.446ZM98.1772 113.028H97.3115V112.145H98.1772V113.028ZM102.66 119C102.633 118.871 102.613 118.755 102.598 118.653C102.583 118.55 102.573 118.448 102.567 118.345C102.4 118.559 102.191 118.738 101.939 118.881C101.69 119.022 101.423 119.092 101.139 119.092C100.644 119.092 100.268 118.972 100.01 118.732C99.752 118.489 99.623 118.147 99.623 117.708C99.623 117.257 99.8047 116.91 100.168 116.667C100.534 116.42 101.035 116.297 101.671 116.297H102.563V115.744C102.563 115.465 102.475 115.246 102.299 115.084C102.124 114.92 101.879 114.838 101.565 114.838C101.349 114.838 101.157 114.866 100.99 114.922C100.826 114.978 100.692 115.054 100.59 115.15L100.498 115.651H99.8296V114.729C100.046 114.556 100.309 114.418 100.616 114.315C100.924 114.21 101.258 114.157 101.618 114.157C102.157 114.157 102.594 114.295 102.928 114.57C103.262 114.846 103.429 115.24 103.429 115.752V118.042C103.429 118.104 103.429 118.164 103.429 118.222C103.432 118.281 103.436 118.339 103.442 118.398L103.793 118.446V119H102.66ZM101.267 118.367C101.554 118.367 101.816 118.298 102.053 118.161C102.291 118.023 102.46 117.857 102.563 117.664V116.882H101.64C101.286 116.882 101.004 116.964 100.796 117.128C100.591 117.292 100.489 117.491 100.489 117.726C100.489 117.934 100.553 118.093 100.682 118.205C100.811 118.313 101.006 118.367 101.267 118.367ZM104.387 118.446L105.103 118.323V114.926L104.387 114.803V114.245H105.876L105.938 114.953C106.096 114.701 106.294 114.506 106.531 114.368C106.771 114.228 107.044 114.157 107.349 114.157C107.861 114.157 108.258 114.308 108.54 114.61C108.821 114.909 108.961 115.372 108.961 115.999V118.323L109.678 118.446V119H107.379V118.446L108.096 118.323V116.016C108.096 115.597 108.012 115.3 107.845 115.124C107.681 114.948 107.429 114.86 107.089 114.86C106.84 114.86 106.619 114.92 106.426 115.041C106.235 115.161 106.083 115.325 105.969 115.533V118.323L106.685 118.446V119H104.387V118.446Z" fill="#858585"/>
</svg>
