<svg width="92" height="81" viewBox="0 0 92 81" fill="none" xmlns="http://www.w3.org/2000/svg">
<path d="M59 16H33H18V29H74V16H59Z" fill="#26B99A"/>
<path d="M74 29H18V69H74V29Z" fill="#EDEADA"/>
<path d="M25.8271 42.1387L27.3652 41.9473V34.4893L25.7998 34.5166V33.6758L28.7119 33.0469V41.9473L30.2432 42.1387V43H25.8271V42.1387Z" fill="#858585"/>
<path d="M42.6631 43V42.0771L45.9238 38.4541C46.5072 37.8024 46.9014 37.2852 47.1064 36.9023C47.3161 36.5195 47.4209 36.1276 47.4209 35.7266C47.4209 35.2298 47.2751 34.8128 46.9834 34.4756C46.6917 34.1338 46.3066 33.9629 45.8281 33.9629C45.14 33.9629 44.6341 34.1383 44.3105 34.4893C43.987 34.8402 43.8252 35.3369 43.8252 35.9795H42.5332L42.5195 35.9385C42.4967 35.0817 42.7793 34.3617 43.3672 33.7783C43.9596 33.195 44.7799 32.9033 45.8281 32.9033C46.7259 32.9033 47.4391 33.1654 47.9678 33.6895C48.501 34.209 48.7676 34.8721 48.7676 35.6787C48.7676 36.221 48.6058 36.7633 48.2822 37.3057C47.9632 37.848 47.512 38.4336 46.9287 39.0625L44.3105 41.9131L44.3242 41.9473H47.8584L47.9678 40.8057H49.1094V43H42.6631Z" fill="#858585"/>
<path d="M31.2412 57.6504H32.6152V58.7031H31.2412V59.9473L32.3555 60.1387V61H28.7871V60.1387L29.9014 59.9473V58.7031H25.4307V57.9443L29.8193 51.0469H31.2412V57.6504ZM26.8662 57.6504H29.9014V52.9678L29.8604 52.9541L29.7236 53.3164L26.8662 57.6504Z" fill="#858585"/>
<path d="M47.5986 53.0156L47.4688 52.2432H44.4951L44.1738 55.0391C44.3789 54.8841 44.609 54.7565 44.8643 54.6562C45.124 54.5514 45.4225 54.4945 45.7598 54.4854C46.6758 54.4762 47.3958 54.7747 47.9199 55.3809C48.4486 55.987 48.7129 56.8027 48.7129 57.8281C48.7129 58.8262 48.444 59.6283 47.9062 60.2344C47.373 60.8405 46.5938 61.1436 45.5684 61.1436C44.7253 61.1436 44.0234 60.9134 43.4629 60.4531C42.9069 59.9928 42.6403 59.3161 42.6631 58.4229L42.6768 58.3818H43.8936C43.8936 58.9196 44.0485 59.3389 44.3584 59.6396C44.6729 59.9404 45.0762 60.0908 45.5684 60.0908C46.138 60.0908 46.5801 59.8903 46.8945 59.4893C47.209 59.0882 47.3662 58.5391 47.3662 57.8418C47.3662 57.1992 47.2067 56.6751 46.8877 56.2695C46.5732 55.8594 46.1357 55.6543 45.5752 55.6543C45.0465 55.6543 44.6615 55.734 44.4199 55.8936C44.1829 56.0531 44.0098 56.2969 43.9004 56.625L42.7793 56.5088L43.3535 51.0469H48.6104V53.0156H47.5986Z" fill="#858585"/>
<path d="M63.5391 50.9033C63.8763 50.9033 64.2113 50.9421 64.5439 51.0195C64.8812 51.097 65.1592 51.195 65.3779 51.3135L65.1182 52.3184C64.904 52.2135 64.6693 52.1292 64.4141 52.0654C64.1589 51.9971 63.8672 51.9629 63.5391 51.9629C62.8418 51.9629 62.2858 52.2272 61.8711 52.7559C61.4609 53.2799 61.2422 54.0729 61.2148 55.1348L61.2422 55.1621C61.4974 54.9251 61.8096 54.7383 62.1787 54.6016C62.5479 54.4603 62.9466 54.3896 63.375 54.3896C64.2637 54.3896 64.9723 54.6973 65.501 55.3125C66.0296 55.9277 66.2939 56.707 66.2939 57.6504C66.2939 58.6803 66.0114 59.5212 65.4463 60.1729C64.8857 60.82 64.1361 61.1436 63.1973 61.1436C62.2266 61.1436 61.4222 60.7904 60.7842 60.084C60.1462 59.3776 59.8271 58.3773 59.8271 57.083V55.7432C59.8271 54.1663 60.1735 52.9655 60.8662 52.1406C61.5589 51.3158 62.4499 50.9033 63.5391 50.9033ZM63.0811 55.3945C62.6208 55.3945 62.2288 55.488 61.9053 55.6748C61.5817 55.8571 61.3356 56.1032 61.167 56.4131V57.2129C61.167 58.138 61.3584 58.849 61.7412 59.3457C62.1286 59.8424 62.6139 60.0908 63.1973 60.0908C63.7487 60.0908 64.1771 59.8584 64.4824 59.3936C64.7923 58.9242 64.9473 58.3431 64.9473 57.6504C64.9473 56.9941 64.7809 56.4541 64.4482 56.0303C64.1201 55.6064 63.6644 55.3945 63.0811 55.3945Z" fill="#858585"/>
<path d="M61.4814 37.4014H62.6572C63.2542 37.4014 63.6758 37.2533 63.9219 36.957C64.1725 36.6562 64.2979 36.2393 64.2979 35.7061C64.2979 35.1364 64.1566 34.7035 63.874 34.4072C63.5915 34.111 63.1745 33.9629 62.623 33.9629C62.099 33.9629 61.6774 34.1178 61.3584 34.4277C61.0439 34.7331 60.8867 35.141 60.8867 35.6514H59.5947L59.5811 35.6104C59.5583 34.8584 59.8294 34.2204 60.3945 33.6963C60.9642 33.1676 61.707 32.9033 62.623 32.9033C63.5436 32.9033 64.2773 33.1494 64.8242 33.6416C65.3711 34.1292 65.6445 34.8265 65.6445 35.7334C65.6445 36.1436 65.5192 36.5537 65.2686 36.9639C65.0225 37.3695 64.651 37.6794 64.1543 37.8936C64.7513 38.0895 65.1729 38.3971 65.4189 38.8164C65.6696 39.2357 65.7949 39.7051 65.7949 40.2246C65.7949 41.1315 65.4964 41.8447 64.8994 42.3643C64.307 42.8838 63.5482 43.1436 62.623 43.1436C61.7116 43.1436 60.9596 42.8997 60.3672 42.4121C59.7747 41.9199 59.4899 41.2546 59.5127 40.416L59.5332 40.375H60.8184C60.8184 40.8991 60.9779 41.3161 61.2969 41.626C61.6204 41.9359 62.0625 42.0908 62.623 42.0908C63.1927 42.0908 63.6393 41.9359 63.9629 41.626C64.2865 41.3161 64.4482 40.8581 64.4482 40.252C64.4482 39.6367 64.3047 39.1833 64.0176 38.8916C63.7305 38.5999 63.277 38.4541 62.6572 38.4541H61.4814V37.4014Z" fill="#858585"/>
<path d="M45 23C46.1046 23 47 22.1046 47 21C47 19.8954 46.1046 19 45 19C43.8954 19 43 19.8954 43 21C43 22.1046 43.8954 23 45 23Z" fill="#38454F"/>
<path d="M49.315 14.52C48.979 13.937 48.534 13.43 48 13.025C47.162 12.391 46.13 12 45 12C42.243 12 40 14.243 40 17H42C42 15.346 43.346 14 45 14C45.624 14 46.204 14.192 46.685 14.52C47.478 15.061 48 15.97 48 17C48 18.654 46.654 20 45 20C44.447 20 44 20.447 44 21C44 21.553 44.447 22 45 22C47.757 22 50 19.757 50 17C50 16.093 49.739 15.254 49.315 14.52Z" fill="#AFB6BB"/>
</svg>
