<svg width="92" height="81" viewBox="0 0 92 81" fill="none" xmlns="http://www.w3.org/2000/svg">
<path d="M9.16249 43.617L89.0473 43.1024L89.2456 73.8901L9.36079 74.4047C7.08239 74.4193 5.21785 71.7236 5.19633 68.3836L5.07594 49.6911C5.05443 46.3512 6.88409 43.6316 9.16249 43.617Z" fill="#FFEBB7"/>
<path d="M89.7229 7.90629L5 8.87256L5.3163 36.6059L90.0392 35.6397L89.7229 7.90629Z" fill="#FFEBB7"/>
<path d="M9.51501 40.8939L89.022 40.0516C89.8512 40.0428 90.5326 41.0307 90.5457 42.2604C90.5587 43.4902 89.8983 44.4923 89.0691 44.5011L9.56215 45.3433C7.08056 45.3696 5.09347 48.3849 5.13246 52.0652L5.27386 65.4135C5.31285 69.0938 7.36337 72.0663 9.84496 72.04L89.3519 71.1978C90.1811 71.189 90.8626 72.1769 90.8756 73.4066C90.8886 74.6363 90.2282 75.6385 89.399 75.6472L9.89209 76.4895C5.75642 76.5333 2.33857 71.5786 2.2736 65.4453L2.1322 52.0969C2.06722 45.9637 5.37934 40.9377 9.51501 40.8939Z" fill="#67759B"/>
<path d="M9.50067 4.85821L89.0076 4.01596C89.8368 4.00718 90.5183 4.99508 90.5313 6.2248C90.5443 7.45452 89.8839 8.45663 89.0548 8.46542L9.54781 9.30767C7.06621 9.33395 5.07913 12.3493 5.11811 16.0295L5.25952 29.3779C5.29851 33.0581 7.34902 36.0307 9.83061 36.0044L89.3376 35.1621C90.1668 35.1534 90.8482 36.1413 90.8613 37.371C90.8743 38.6007 90.2139 39.6028 89.3847 39.6116L9.87775 40.4538C5.74208 40.4977 2.32423 35.543 2.25926 29.4097L2.11785 16.0613C2.05288 9.92801 5.365 4.90202 9.50067 4.85821Z" fill="#12BF95"/>
<path d="M84.5557 16.3981L15.5503 17.1851C14.7218 17.1946 14.0389 16.2176 14.0251 15.0032C14.0112 13.7888 14.6717 12.7965 15.5001 12.7871L84.5055 12.0001L84.5557 16.3981Z" fill="#E6BE94"/>
<path d="M84.5557 25.3981L15.5503 26.1851C14.7218 26.1946 14.0389 25.2176 14.0251 24.0032C14.0112 22.7888 14.6717 21.7965 15.5001 21.7871L84.5055 21.0001L84.5557 25.3981Z" fill="#E6BE94"/>
<path d="M84.5557 33.3981L15.5503 34.1851C14.7218 34.1946 14.0389 33.2176 14.0251 32.0032C14.0112 30.7888 14.6717 29.7965 15.5001 29.7871L84.5055 29.0001L84.5557 33.3981Z" fill="#E6BE94"/>
<path d="M9.00024 47.9072L87.0064 47.0176C87.8348 47.0081 88.5177 47.9851 88.5316 49.1995C88.5454 50.4139 87.885 51.4062 87.0565 51.4156L9.0504 52.3053C9.0504 52.3053 9.00024 47.9072 9.00024 47.9072Z" fill="#E6BE94"/>
<path d="M9.00024 55.9072L87.0064 55.0176C87.8348 55.0081 88.5177 55.9851 88.5316 57.1995C88.5454 58.4139 87.885 59.4062 87.0565 59.4156L9.0504 60.3053C9.0504 60.3053 9.00024 55.9072 9.00024 55.9072Z" fill="#E6BE94"/>
<path d="M9.00024 63.9067L87.0064 63.0171C87.8348 63.0076 88.5177 63.9846 88.5316 65.199C88.5454 66.4134 87.885 67.4057 87.0565 67.4151L9.0504 68.3048C9.0504 68.3048 9.00024 63.9067 9.00024 63.9067Z" fill="#E6BE94"/>
</svg>
