<svg width="32" height="32" viewBox="0 0 32 32" fill="none" xmlns="http://www.w3.org/2000/svg">
<path d="M5.43276 17.0359C7.77867 15.9848 12.0813 15.4377 16.381 15.4414C18.5186 15.4433 20.6315 15.5812 22.4686 15.8532C24.3161 16.1268 25.8451 16.5304 26.8403 17.0429C27.727 17.4995 28.1971 18.3214 28.3811 19.3914C28.5672 20.4735 28.4481 21.7582 28.1879 23.0184C27.929 24.2716 27.5387 25.4636 27.2111 26.3456C27.0477 26.7856 26.9007 27.1463 26.795 27.3961C26.7811 27.4288 26.768 27.4597 26.7556 27.4885L5.47796 27.3765C5.46064 27.3414 5.44186 27.303 5.42176 27.2616C5.30212 27.0146 5.13586 26.6581 4.95113 26.223C4.58072 25.3506 4.14052 24.1729 3.85071 22.9356C3.55909 21.6905 3.43034 20.4284 3.64459 19.3687C3.85399 18.3329 4.38416 17.5057 5.43276 17.0359Z" fill="white" stroke="white"/>
<path d="M21.5536 6.5C21.5536 9.87761 19.0342 12.5536 16 12.5536C12.9658 12.5536 10.4464 9.87761 10.4464 6.5C10.4464 3.12239 12.9658 0.446429 16 0.446429C19.0342 0.446429 21.5536 3.12239 21.5536 6.5Z" fill="white" stroke="white" stroke-width="0.892857"/>
</svg>
